<svg width="20" height="20" viewBox="0 0 20 20" fill="none" xmlns="http://www.w3.org/2000/svg">
<path d="M3.75 0H16.25C16.913 0 17.5489 0.263392 18.0178 0.732233C18.4866 1.20107 18.75 1.83696 18.75 2.5V6.25C18.75 6.91304 18.4866 7.54893 18.0178 8.01777C17.5489 8.48661 16.913 8.75 16.25 8.75H3.75C3.08696 8.75 2.45107 8.48661 1.98223 8.01777C1.51339 7.54893 1.25 6.91304 1.25 6.25V2.5C1.25 1.83696 1.51339 1.20107 1.98223 0.732233C2.45107 0.263392 3.08696 0 3.75 0ZM3.75 1.25C3.41848 1.25 3.10054 1.3817 2.86612 1.61612C2.6317 1.85054 2.5 2.16848 2.5 2.5V6.25C2.5 6.58152 2.6317 6.89946 2.86612 7.13388C3.10054 7.3683 3.41848 7.5 3.75 7.5H16.25C16.5815 7.5 16.8995 7.3683 17.1339 7.13388C17.3683 6.89946 17.5 6.58152 17.5 6.25V2.5C17.5 2.16848 17.3683 1.85054 17.1339 1.61612C16.8995 1.3817 16.5815 1.25 16.25 1.25H3.75ZM3.75 11.25H16.25C16.913 11.25 17.5489 11.5134 18.0178 11.9822C18.4866 12.4511 18.75 13.087 18.75 13.75V17.5C18.75 18.163 18.4866 18.7989 18.0178 19.2678C17.5489 19.7366 16.913 20 16.25 20H3.75C3.08696 20 2.45107 19.7366 1.98223 19.2678C1.51339 18.7989 1.25 18.163 1.25 17.5V13.75C1.25 13.087 1.51339 12.4511 1.98223 11.9822C2.45107 11.5134 3.08696 11.25 3.75 11.25ZM3.75 12.5C3.41848 12.5 3.10054 12.6317 2.86612 12.8661C2.6317 13.1005 2.5 13.4185 2.5 13.75V17.5C2.5 17.8315 2.6317 18.1495 2.86612 18.3839C3.10054 18.6183 3.41848 18.75 3.75 18.75H16.25C16.5815 18.75 16.8995 18.6183 17.1339 18.3839C17.3683 18.1495 17.5 17.8315 17.5 17.5V13.75C17.5 13.4185 17.3683 13.1005 17.1339 12.8661C16.8995 12.6317 16.5815 12.5 16.25 12.5H3.75Z" fill="#0F0F0F"/>
</svg>
