<svg width="123" height="46" viewBox="0 0 123 46" fill="none" xmlns="http://www.w3.org/2000/svg">
<path d="M4.43763 5.5376L0.988828 0.200001H3.12723L5.62323 4.0856L8.15043 0.200001H10.116L6.66723 5.5376L10.3176 11.1248H8.14803L5.44803 7.0064L2.73123 11.1248H0.780029L4.43283 5.5376H4.43763Z" fill="#0F0F0F"/>
<path d="M10.6176 7.3784V6.0056H15.924V7.3784H10.6176Z" fill="#0F0F0F"/>
<path d="M19.1064 7.5656C19.1592 8.2112 19.4208 8.7296 19.8936 9.1184C20.3664 9.5096 20.9832 9.704 21.7416 9.704C22.4064 9.704 22.9464 9.56 23.3568 9.2744C23.7672 8.9888 23.9736 8.5904 23.9736 8.0816C23.9736 7.7168 23.8608 7.4288 23.6376 7.2152C23.4144 7.0016 23.1096 6.8384 22.7256 6.7232C22.3392 6.608 21.7992 6.488 21.1008 6.3632C20.3928 6.2384 19.788 6.0752 19.284 5.8712C18.78 5.6696 18.3696 5.36 18.0504 4.9424C17.7312 4.5248 17.5752 3.98 17.5752 3.3032C17.5752 2.6792 17.7384 2.1224 18.0672 1.6328C18.3936 1.1432 18.852 0.764 19.44 0.4952C20.028 0.224 20.7024 0.0895996 21.4608 0.0895996C22.2192 0.0895996 22.9392 0.236 23.5512 0.5264C24.1632 0.8168 24.648 1.2176 25.0032 1.7288C25.3584 2.24 25.5504 2.8208 25.5816 3.476H23.82C23.7576 2.9144 23.5128 2.4608 23.088 2.1176C22.6608 1.7744 22.1184 1.604 21.4632 1.604C20.808 1.604 20.3208 1.7408 19.9416 2.0168C19.56 2.2928 19.3704 2.6816 19.3704 3.1784C19.3704 3.5312 19.4832 3.8144 19.7064 4.0208C19.9296 4.2296 20.2296 4.3856 20.604 4.4888C20.9784 4.592 21.516 4.7072 22.212 4.832C22.92 4.9568 23.5296 5.1224 24.0384 5.3312C24.5472 5.54 24.9648 5.8472 25.2864 6.2528C25.608 6.6584 25.7712 7.1936 25.7712 7.8608C25.7712 8.528 25.5984 9.0824 25.2576 9.5936C24.9144 10.1048 24.4344 10.5008 23.8224 10.7864C23.208 11.0744 22.512 11.216 21.732 11.216C20.868 11.216 20.1096 11.06 19.452 10.748C18.7968 10.436 18.2856 10.0016 17.916 9.4448C17.5464 8.888 17.3568 8.252 17.3472 7.532L19.1112 7.5632L19.1064 7.5656Z" fill="#0F0F0F"/>
<path d="M26.0808 11.1224L30.1704 0.200001H32.3088L36.3816 11.1224H34.4616L33.432 8.4224H28.9536L27.9384 11.1224H26.0808ZM29.4528 6.896H32.9328L31.1856 2.1368L29.4528 6.896Z" fill="#0F0F0F"/>
<path d="M37.5024 0.200001H44.4792V1.7912H39.2976V4.9592H43.572V6.5048H39.2976V11.1248H37.5024V0.200001Z" fill="#0F0F0F"/>
<path d="M1.09914 17.5376H9.24474V18.5216L2.72154 27.212H9.44634V28.46H0.895142V27.476L7.41834 18.7832H1.09914V17.5352V17.5376Z" fill="#0F0F0F"/>
<path d="M10.5312 22.3448C10.848 21.7304 11.292 21.2552 11.8656 20.9168C12.4368 20.5784 13.092 20.4104 13.8312 20.4104C14.5704 20.4104 15.204 20.5616 15.7656 20.8616C16.3272 21.164 16.7688 21.6008 17.0928 22.172C17.4144 22.7432 17.5872 23.4152 17.6064 24.1832C17.6064 24.2984 17.5968 24.4808 17.5752 24.7304H11.3952V24.8408C11.4144 25.6208 11.6544 26.2448 12.1128 26.7128C12.5688 27.1808 13.1688 27.416 13.908 27.416C14.4792 27.416 14.9664 27.2744 15.3672 26.9864C15.768 26.7008 16.0344 26.3024 16.1712 25.7936H17.4672C17.3112 26.6048 16.92 27.2672 16.2984 27.7832C15.6744 28.2992 14.9088 28.556 14.004 28.556C13.2144 28.556 12.5208 28.3856 11.928 28.0472C11.3352 27.7112 10.8744 27.2312 10.548 26.612C10.2192 25.9928 10.056 25.2824 10.056 24.4808C10.056 23.6792 10.2144 22.9568 10.5312 22.3424V22.3448ZM16.2816 23.672C16.2192 22.9976 15.9672 22.4696 15.5256 22.0952C15.084 21.7208 14.5224 21.5336 13.848 21.5336C13.2432 21.5336 12.7128 21.7328 12.2568 22.1264C11.7984 22.52 11.5392 23.036 11.4768 23.6696H16.284L16.2816 23.672Z" fill="#0F0F0F"/>
<path d="M23.1168 20.504V21.752H22.4784C21.72 21.752 21.1752 22.0064 20.8464 22.5176C20.52 23.0264 20.3544 23.6576 20.3544 24.4064V28.4648H19.0752V20.5064H20.184L20.3544 21.7088C20.5824 21.344 20.88 21.0536 21.2424 20.8352C21.6048 20.6168 22.1112 20.5064 22.7568 20.5064H23.1168V20.504Z" fill="#0F0F0F"/>
<path d="M25.4496 28.04C24.852 27.6968 24.3864 27.2168 24.0528 26.6048C23.7216 25.9904 23.5536 25.2824 23.5536 24.4832C23.5536 23.684 23.7192 22.976 24.0528 22.3616C24.3864 21.7472 24.852 21.2696 25.4496 20.9264C26.0472 20.5832 26.7312 20.4128 27.5016 20.4128C28.272 20.4128 28.956 20.5856 29.5536 20.9264C30.1512 21.2696 30.6168 21.7496 30.9504 22.3616C31.284 22.976 31.4496 23.684 31.4496 24.4832C31.4496 25.2824 31.284 25.9904 30.9504 26.6048C30.6168 27.2192 30.1512 27.6968 29.5536 28.04C28.956 28.3832 28.272 28.5536 27.5016 28.5536C26.7312 28.5536 26.0472 28.3808 25.4496 28.04ZM28.884 27.0416C29.2824 26.792 29.5944 26.444 29.8128 25.9952C30.0312 25.5488 30.1416 25.0448 30.1416 24.4832C30.1416 23.9216 30.0312 23.4176 29.8128 22.9688C29.5944 22.52 29.2848 22.172 28.884 21.9224C28.4832 21.6728 28.0224 21.548 27.5016 21.548C26.9808 21.548 26.5224 21.6728 26.1216 21.9224C25.7208 22.172 25.4112 22.52 25.1928 22.9688C24.9744 23.4176 24.864 23.9216 24.864 24.4832C24.864 25.0448 24.9744 25.5488 25.1928 25.9952C25.4112 26.444 25.7208 26.792 26.1216 27.0416C26.5224 27.2912 26.9832 27.416 27.5016 27.416C28.02 27.416 28.4808 27.2912 28.884 27.0416Z" fill="#0F0F0F"/>
<path d="M37.1904 17.5376H44.1504V18.7856H38.5488V22.28H43.2144V23.528H38.5488V27.2096H44.352V28.4576H37.1904V17.5352V17.5376Z" fill="#0F0F0F"/>
<path d="M56.7528 21.2528C57.3096 21.8144 57.588 22.688 57.588 23.8736V28.4624H56.3088V23.9528C56.3088 23.1824 56.1456 22.5944 55.8168 22.1912C55.488 21.7856 55.0224 21.5816 54.42 21.5816C53.7528 21.5816 53.232 21.8168 52.8528 22.2848C52.4736 22.7528 52.284 23.3912 52.284 24.2048V28.4648H51.0048V23.9552C51.0048 23.1848 50.8392 22.5968 50.5056 22.1936C50.1744 21.788 49.6992 21.584 49.0872 21.584C48.4416 21.584 47.928 21.8312 47.5488 22.3256C47.1696 22.82 46.98 23.468 46.98 24.2696V28.4672H45.7008V20.5088H46.8072L46.98 21.6008C47.5512 20.8112 48.3264 20.4152 49.3056 20.4152C49.8768 20.4152 50.3832 20.5424 50.8272 20.7968C51.2688 21.0512 51.6 21.428 51.8184 21.9272C52.3896 20.9192 53.3112 20.4128 54.5808 20.4128C55.476 20.4128 56.2008 20.6936 56.7576 21.2552L56.7528 21.2528Z" fill="#0F0F0F"/>
<path d="M60.4584 17.6624C60.6144 17.8184 60.6912 18.0152 60.6912 18.2552C60.6912 18.4952 60.6144 18.692 60.4584 18.848C60.3024 19.004 60.1056 19.0832 59.8656 19.0832C59.6256 19.0832 59.4288 19.004 59.2728 18.848C59.1168 18.692 59.0376 18.4952 59.0376 18.2552C59.0376 18.0152 59.1144 17.8184 59.2728 17.6624C59.4312 17.5064 59.6256 17.4296 59.8656 17.4296C60.1056 17.4296 60.3024 17.5064 60.4584 17.6624ZM59.2248 20.504H60.504V28.4624H59.2248V20.504Z" fill="#0F0F0F"/>
<path d="M63.252 25.8392C63.2712 26.3192 63.4824 26.708 63.8832 27.0104C64.2816 27.3128 64.8 27.464 65.436 27.464C65.9976 27.464 66.4536 27.3512 66.8016 27.128C67.1496 26.9048 67.3248 26.6096 67.3248 26.2472C67.3248 25.9352 67.2408 25.6952 67.0752 25.5296C66.9096 25.364 66.6936 25.2488 66.4272 25.1864C66.1632 25.124 65.7864 25.0616 65.2968 24.9992C64.6104 24.9152 64.0488 24.8072 63.612 24.6704C63.1752 24.536 62.8224 24.32 62.5512 24.0224C62.28 23.7272 62.1456 23.3192 62.1456 22.7984C62.1456 22.3304 62.28 21.9152 62.544 21.5504C62.8104 21.1856 63.1704 20.9024 63.6288 20.6984C64.0848 20.4968 64.6008 20.3936 65.172 20.3936C66.108 20.3936 66.8712 20.612 67.4592 21.0488C68.0472 21.4856 68.3712 22.1096 68.4336 22.9208H67.1544C67.1016 22.5032 66.8976 22.1624 66.5448 21.8912C66.192 21.62 65.748 21.4856 65.22 21.4856C64.692 21.4856 64.2408 21.5984 63.9096 21.8216C63.576 22.0448 63.4104 22.34 63.4104 22.7048C63.4104 22.976 63.4872 23.1824 63.6432 23.3288C63.7992 23.4752 64.0008 23.5736 64.2432 23.624C64.488 23.6768 64.86 23.7344 65.3592 23.7968C66.0552 23.8808 66.6312 23.996 67.0824 24.14C67.536 24.2864 67.8984 24.5192 68.1744 24.8408C68.4504 25.1624 68.5872 25.5992 68.5872 26.1512C68.5872 26.6288 68.4456 27.0512 68.1672 27.416C67.8864 27.7808 67.5072 28.0616 67.0272 28.2584C66.5472 28.4552 66.0192 28.5536 65.436 28.5536C64.3944 28.5536 63.5616 28.3136 62.9328 27.836C62.304 27.356 61.9824 26.6912 61.9728 25.8392H63.252Z" fill="#0F0F0F"/>
<path d="M70.8816 25.8392C70.9032 26.3192 71.1144 26.708 71.5152 27.0104C71.916 27.3128 72.432 27.464 73.068 27.464C73.6296 27.464 74.0856 27.3512 74.4336 27.128C74.7816 26.9048 74.9568 26.6096 74.9568 26.2472C74.9568 25.9352 74.8728 25.6952 74.7072 25.5296C74.5416 25.364 74.3256 25.2488 74.0616 25.1864C73.7952 25.124 73.4184 25.0616 72.9288 24.9992C72.2424 24.9152 71.6808 24.8072 71.244 24.6704C70.8072 24.5336 70.4544 24.32 70.1832 24.0224C69.912 23.7272 69.7776 23.3192 69.7776 22.7984C69.7776 22.3304 69.9096 21.9152 70.176 21.5504C70.44 21.1856 70.8024 20.9024 71.2608 20.6984C71.7192 20.4968 72.2352 20.3936 72.8064 20.3936C73.7424 20.3936 74.5056 20.612 75.0912 21.0488C75.6768 21.4856 76.0032 22.1096 76.0656 22.9208H74.7864C74.7336 22.5032 74.532 22.1624 74.1792 21.8912C73.8264 21.62 73.3824 21.4856 72.852 21.4856C72.3216 21.4856 71.8752 21.5984 71.5416 21.8216C71.208 22.0448 71.0424 22.34 71.0424 22.7048C71.0424 22.976 71.1216 23.1824 71.2776 23.3288C71.4336 23.4752 71.6352 23.5736 71.8776 23.624C72.12 23.6744 72.4944 23.7344 72.9936 23.7968C73.692 23.8808 74.2656 23.996 74.7192 24.14C75.1704 24.2864 75.5352 24.5192 75.8112 24.8408C76.0872 25.1624 76.224 25.5992 76.224 26.1512C76.224 26.6288 76.0824 27.0512 75.8016 27.416C75.5208 27.7808 75.1416 28.0616 74.664 28.2584C74.1864 28.4552 73.656 28.5536 73.0728 28.5536C72.0312 28.5536 71.1984 28.3136 70.5672 27.836C69.9384 27.356 69.6192 26.6912 69.6072 25.8392H70.8864H70.8816Z" fill="#0F0F0F"/>
<path d="M78.9024 17.6624C79.0584 17.8184 79.1376 18.0152 79.1376 18.2552C79.1376 18.4952 79.0584 18.692 78.9024 18.848C78.7464 19.004 78.5496 19.0832 78.3096 19.0832C78.0696 19.0832 77.8728 19.004 77.7168 18.848C77.5608 18.692 77.4816 18.4952 77.4816 18.2552C77.4816 18.0152 77.5584 17.8184 77.7168 17.6624C77.8728 17.5064 78.0696 17.4296 78.3096 17.4296C78.5496 17.4296 78.7464 17.5064 78.9024 17.6624ZM77.6688 20.504H78.948V28.4624H77.6688V20.504Z" fill="#0F0F0F"/>
<path d="M82.3104 28.04C81.7104 27.6968 81.2472 27.2168 80.9136 26.6048C80.58 25.9904 80.4144 25.2824 80.4144 24.4832C80.4144 23.684 80.58 22.976 80.9136 22.3616C81.2472 21.7472 81.7104 21.2696 82.3104 20.9264C82.908 20.5832 83.592 20.4128 84.3624 20.4128C85.1328 20.4128 85.8168 20.5856 86.4144 20.9264C87.012 21.2696 87.4776 21.7496 87.8112 22.3616C88.1448 22.976 88.3104 23.684 88.3104 24.4832C88.3104 25.2824 88.1448 25.9904 87.8112 26.6048C87.48 27.2192 87.0144 27.6968 86.4144 28.04C85.8168 28.3832 85.1328 28.5536 84.3624 28.5536C83.592 28.5536 82.908 28.3808 82.3104 28.04ZM85.7424 27.0416C86.1432 26.792 86.4528 26.444 86.6712 25.9952C86.8896 25.5488 87 25.0448 87 24.4832C87 23.9216 86.8896 23.4176 86.6712 22.9688C86.4528 22.52 86.1432 22.172 85.7424 21.9224C85.344 21.6728 84.8832 21.548 84.3624 21.548C83.8416 21.548 83.3832 21.6728 82.9824 21.9224C82.5816 22.172 82.272 22.52 82.0536 22.9688C81.8352 23.4176 81.7248 23.9216 81.7248 24.4832C81.7248 25.0448 81.8352 25.5488 82.0536 25.9952C82.272 26.444 82.5816 26.792 82.9824 27.0416C83.3832 27.2912 83.8416 27.416 84.3624 27.416C84.8832 27.416 85.344 27.2912 85.7424 27.0416Z" fill="#0F0F0F"/>
<path d="M96.012 21.284C96.6 21.8672 96.8952 22.7816 96.8952 24.0296V28.4624H95.616V24.1088C95.616 23.288 95.4312 22.6616 95.0616 22.2296C94.692 21.7976 94.1592 21.5816 93.4608 21.5816C92.712 21.5816 92.124 21.8432 91.6992 22.3616C91.2744 22.88 91.0584 23.588 91.0584 24.4832V28.4624H89.7792V20.504H90.888L91.0584 21.5816C91.6608 20.8016 92.5368 20.4128 93.6792 20.4128C94.6488 20.4128 95.424 20.7032 96.012 21.2864V21.284Z" fill="#0F0F0F"/>
<path d="M0.599976 45.8L4.76637 34.8776H6.37437L10.5264 45.8H9.07438L7.91998 42.8504H3.16078L2.00638 45.8H0.602374H0.599976ZM3.56398 41.6168H7.51197L5.53197 36.3584L3.56638 41.6168H3.56398Z" fill="#0F0F0F"/>
<path d="M10.0391 37.8416H11.4119L13.8143 44.3504L16.2023 37.8416H17.5439L14.5631 45.8H13.0175L10.0367 37.8416H10.0391Z" fill="#0F0F0F"/>
<path d="M19.7304 35.0024C19.8864 35.1584 19.9656 35.3552 19.9656 35.5952C19.9656 35.8352 19.8864 36.032 19.7304 36.188C19.5744 36.344 19.3776 36.4232 19.1376 36.4232C18.8976 36.4232 18.7008 36.344 18.5448 36.188C18.3888 36.032 18.312 35.8352 18.312 35.5952C18.312 35.3552 18.3888 35.1584 18.5448 35.0024C18.7008 34.8464 18.8976 34.7696 19.1376 34.7696C19.3776 34.7696 19.5744 34.8464 19.7304 35.0024ZM18.4968 37.8416H19.776V45.8H18.4968V37.8416Z" fill="#0F0F0F"/>
<path d="M28.968 44.6288V45.8H28.2648C27.756 45.8 27.3912 45.6968 27.1728 45.488C26.9544 45.2792 26.8392 44.9744 26.8296 44.5688C26.2176 45.4544 25.3272 45.896 24.1608 45.896C23.2776 45.896 22.5672 45.6872 22.0296 45.272C21.4944 44.8568 21.228 44.288 21.228 43.5704C21.228 42.7688 21.5016 42.1568 22.0464 41.7296C22.5936 41.3024 23.3856 41.0888 24.4272 41.0888H26.7672V40.544C26.7672 40.0232 26.592 39.6176 26.244 39.3272C25.896 39.0368 25.4088 38.8904 24.7848 38.8904C24.2328 38.8904 23.7792 39.0128 23.4192 39.2576C23.0592 39.5024 22.8384 39.8264 22.7568 40.232H21.4776C21.5712 39.452 21.9168 38.8424 22.5144 38.4056C23.112 37.9688 23.8896 37.7504 24.8472 37.7504C25.8672 37.7504 26.6544 37.9976 27.2112 38.492C27.768 38.9864 28.0464 39.6968 28.0464 40.6232V44.0552C28.0464 44.4416 28.224 44.6336 28.5768 44.6336H28.968V44.6288ZM26.7672 42.164H24.3C23.1144 42.164 22.5216 42.6056 22.5216 43.4912C22.5216 43.8872 22.6776 44.204 22.9896 44.444C23.3016 44.6816 23.7216 44.804 24.2544 44.804C25.0344 44.804 25.6488 44.5976 26.0952 44.1872C26.5416 43.7768 26.7672 43.232 26.7672 42.5552V42.164Z" fill="#0F0F0F"/>
<path d="M30.4823 39.0128H29.0471V37.8416H30.4823V35.612H31.7615V37.8416H33.7727V39.0128H31.7615V43.7096C31.7615 44.0432 31.8263 44.2784 31.9559 44.42C32.0855 44.5616 32.3135 44.6288 32.6351 44.6288H34.0247V45.8H32.5583C31.8095 45.8 31.2767 45.6344 30.9599 45.3008C30.6407 44.9672 30.4847 44.444 30.4847 43.7264V39.0128H30.4823Z" fill="#0F0F0F"/>
<path d="M36.1608 35.0024C36.3168 35.1584 36.396 35.3552 36.396 35.5952C36.396 35.8352 36.3168 36.032 36.1608 36.188C36.0048 36.344 35.808 36.4232 35.568 36.4232C35.328 36.4232 35.1312 36.344 34.9752 36.188C34.8192 36.032 34.7424 35.8352 34.7424 35.5952C34.7424 35.3552 34.8192 35.1584 34.9752 35.0024C35.1312 34.8464 35.328 34.7696 35.568 34.7696C35.808 34.7696 36.0048 34.8464 36.1608 35.0024ZM34.9272 37.8416H36.2064V45.8H34.9272V37.8416Z" fill="#0F0F0F"/>
<path d="M39.5712 45.38C38.9712 45.0368 38.508 44.5568 38.1744 43.9448C37.8408 43.3304 37.6752 42.6224 37.6752 41.8232C37.6752 41.024 37.8408 40.316 38.1744 39.7016C38.508 39.0872 38.9712 38.6096 39.5712 38.2664C40.1688 37.9232 40.8528 37.7528 41.6232 37.7528C42.3936 37.7528 43.0776 37.9256 43.6752 38.2664C44.2728 38.6096 44.7384 39.0896 45.072 39.7016C45.4056 40.316 45.5712 41.024 45.5712 41.8232C45.5712 42.6224 45.4056 43.3304 45.072 43.9448C44.7408 44.5592 44.2752 45.0368 43.6752 45.38C43.0776 45.7232 42.3936 45.8936 41.6232 45.8936C40.8528 45.8936 40.1688 45.7208 39.5712 45.38ZM43.0032 44.3792C43.404 44.1296 43.7136 43.7816 43.932 43.3328C44.1504 42.8864 44.2608 42.3824 44.2608 41.8208C44.2608 41.2592 44.1504 40.7552 43.932 40.3064C43.7136 39.8576 43.404 39.5096 43.0032 39.26C42.6048 39.0104 42.144 38.8856 41.6232 38.8856C41.1024 38.8856 40.644 39.0104 40.2432 39.26C39.8424 39.5096 39.5328 39.8576 39.3144 40.3064C39.096 40.7552 38.9856 41.2592 38.9856 41.8208C38.9856 42.3824 39.096 42.8864 39.3144 43.3328C39.5328 43.7816 39.8424 44.1296 40.2432 44.3792C40.644 44.6288 41.1024 44.7536 41.6232 44.7536C42.144 44.7536 42.6048 44.6288 43.0032 44.3792Z" fill="#0F0F0F"/>
<path d="M53.2704 38.6216C53.8584 39.2048 54.1536 40.1192 54.1536 41.3672V45.8H52.8744V41.4464C52.8744 40.6256 52.6896 39.9992 52.32 39.5672C51.9504 39.1352 51.4176 38.9192 50.7192 38.9192C49.9704 38.9192 49.3824 39.1808 48.9576 39.6992C48.5328 40.2176 48.3168 40.9256 48.3168 41.8208V45.8H47.0376V37.8416H48.1464L48.3168 38.9192C48.9192 38.1392 49.7952 37.7504 50.9376 37.7504C51.9072 37.7504 52.6824 38.0408 53.2704 38.624V38.6216Z" fill="#0F0F0F"/>
<path d="M61.0008 42.2264C61.0536 42.9656 61.3488 43.556 61.8912 43.9976C62.4312 44.4392 63.1176 44.6624 63.9504 44.6624C64.6992 44.6624 65.3064 44.4992 65.7696 44.1704C66.2328 43.8416 66.4632 43.388 66.4632 42.8048C66.4632 42.3776 66.336 42.0392 66.0816 41.7896C65.8272 41.54 65.4984 41.3552 65.0976 41.2352C64.6968 41.1152 64.1544 40.9976 63.468 40.8848C62.376 40.6976 61.5072 40.3904 60.8616 39.9656C60.216 39.5384 59.8944 38.8472 59.8944 37.8896C59.8944 37.2752 60.0504 36.7328 60.3624 36.26C60.6744 35.7872 61.1136 35.42 61.68 35.1584C62.2464 34.8992 62.8944 34.7696 63.624 34.7696C64.392 34.7696 65.076 34.9112 65.6688 35.1896C66.2616 35.4704 66.7296 35.864 67.0728 36.368C67.416 36.872 67.608 37.4528 67.6512 38.108H66.3096C66.2256 37.472 65.94 36.9632 65.4504 36.5792C64.9608 36.1952 64.3536 36.0008 63.624 36.0008C62.8944 36.0008 62.3184 36.1592 61.8912 36.476C61.464 36.7928 61.2504 37.2368 61.2504 37.8104C61.2504 38.228 61.3752 38.552 61.6248 38.7848C61.8744 39.0176 62.196 39.1952 62.592 39.3152C62.988 39.4352 63.528 39.5528 64.2144 39.6656C65.3064 39.8528 66.18 40.1624 66.8352 40.5944C67.4904 41.0264 67.8192 41.72 67.8192 42.6776C67.8192 43.3016 67.656 43.8584 67.3272 44.348C66.9984 44.8376 66.5424 45.2168 65.9544 45.4856C65.3664 45.7568 64.692 45.8912 63.9336 45.8912C63.0792 45.8912 62.3376 45.7376 61.7016 45.4304C61.0656 45.1232 60.576 44.6912 60.228 44.1344C59.88 43.5776 59.6904 42.9416 59.6592 42.2216H61.0008V42.2264Z" fill="#0F0F0F"/>
<path d="M70.9656 45.38C70.3656 45.0368 69.9024 44.5568 69.5688 43.9448C69.2352 43.3304 69.0696 42.6224 69.0696 41.8232C69.0696 41.024 69.2352 40.316 69.5688 39.7016C69.9024 39.0872 70.3656 38.6096 70.9656 38.2664C71.5632 37.9232 72.2472 37.7528 73.0176 37.7528C73.788 37.7528 74.472 37.9256 75.0696 38.2664C75.6672 38.6096 76.1328 39.0896 76.4664 39.7016C76.8 40.316 76.9656 41.024 76.9656 41.8232C76.9656 42.6224 76.8 43.3304 76.4664 43.9448C76.1352 44.5592 75.6696 45.0368 75.0696 45.38C74.472 45.7232 73.788 45.8936 73.0176 45.8936C72.2472 45.8936 71.5632 45.7208 70.9656 45.38ZM74.3976 44.3792C74.7984 44.1296 75.108 43.7816 75.3264 43.3328C75.5448 42.8864 75.6552 42.3824 75.6552 41.8208C75.6552 41.2592 75.5448 40.7552 75.3264 40.3064C75.108 39.8576 74.7984 39.5096 74.3976 39.26C73.9992 39.0104 73.5384 38.8856 73.0176 38.8856C72.4968 38.8856 72.0384 39.0104 71.6376 39.26C71.2368 39.5096 70.9272 39.8576 70.7088 40.3064C70.4904 40.7552 70.38 41.2592 70.38 41.8208C70.38 42.3824 70.4904 42.8864 70.7088 43.3328C70.9272 43.7816 71.2368 44.1296 71.6376 44.3792C72.0384 44.6288 72.4968 44.7536 73.0176 44.7536C73.5384 44.7536 73.9992 44.6288 74.3976 44.3792Z" fill="#0F0F0F"/>
<path d="M78.4296 34.8776H79.7088V45.8H78.4296V34.8776Z" fill="#0F0F0F"/>
<path d="M88.308 37.8416V45.8H87.2016L87.0288 44.7392C86.424 45.5096 85.5768 45.8936 84.4848 45.8936C83.5392 45.8936 82.7784 45.6032 82.2072 45.02C81.636 44.4368 81.348 43.5224 81.348 42.2744V37.8416H82.6272V42.1952C82.6272 43.0184 82.8072 43.6448 83.1648 44.0744C83.5248 44.5064 84.036 44.7224 84.7008 44.7224C85.428 44.7224 85.9992 44.4632 86.4096 43.9424C86.82 43.4216 87.0264 42.716 87.0264 41.8208V37.8416H88.3056H88.308Z" fill="#0F0F0F"/>
<path d="M90.6192 39.0128H89.184V37.8416H90.6192V35.612H91.8984V37.8416H93.9096V39.0128H91.8984V43.7096C91.8984 44.0432 91.9632 44.2784 92.0928 44.42C92.2224 44.5616 92.448 44.6288 92.772 44.6288H94.1616V45.8H92.6952C91.944 45.8 91.4112 45.6344 91.0944 45.3008C90.7776 44.9672 90.6192 44.444 90.6192 43.7264V39.0128Z" fill="#0F0F0F"/>
<path d="M96.2975 35.0024C96.4535 35.1584 96.5327 35.3552 96.5327 35.5952C96.5327 35.8352 96.4535 36.032 96.2975 36.188C96.1415 36.344 95.9448 36.4232 95.7048 36.4232C95.4648 36.4232 95.2679 36.344 95.1119 36.188C94.9559 36.032 94.8792 35.8352 94.8792 35.5952C94.8792 35.3552 94.9559 35.1584 95.1119 35.0024C95.2679 34.8464 95.4648 34.7696 95.7048 34.7696C95.9448 34.7696 96.1415 34.8464 96.2975 35.0024ZM95.0639 37.8416H96.3431V45.8H95.0639V37.8416Z" fill="#0F0F0F"/>
<path d="M99.708 45.38C99.1104 45.0368 98.6448 44.5568 98.3112 43.9448C97.9776 43.3304 97.812 42.6224 97.812 41.8232C97.812 41.024 97.9776 40.316 98.3112 39.7016C98.6448 39.0872 99.1104 38.6096 99.708 38.2664C100.306 37.9232 100.99 37.7528 101.76 37.7528C102.53 37.7528 103.214 37.9256 103.812 38.2664C104.41 38.6096 104.875 39.0896 105.209 39.7016C105.542 40.316 105.708 41.024 105.708 41.8232C105.708 42.6224 105.542 43.3304 105.209 43.9448C104.875 44.5592 104.41 45.0368 103.812 45.38C103.214 45.7232 102.53 45.8936 101.76 45.8936C100.99 45.8936 100.306 45.7208 99.708 45.38ZM103.14 44.3792C103.541 44.1296 103.85 43.7816 104.069 43.3328C104.287 42.8864 104.395 42.3824 104.395 41.8208C104.395 41.2592 104.287 40.7552 104.069 40.3064C103.85 39.8576 103.541 39.5096 103.14 39.26C102.739 39.0104 102.278 38.8856 101.76 38.8856C101.242 38.8856 100.781 39.0104 100.378 39.26C99.9792 39.5096 99.6672 39.8576 99.4488 40.3064C99.2304 40.7552 99.12 41.2592 99.12 41.8208C99.12 42.3824 99.2304 42.8864 99.4488 43.3328C99.6672 43.7816 99.9768 44.1296 100.378 44.3792C100.778 44.6288 101.239 44.7536 101.76 44.7536C102.281 44.7536 102.739 44.6288 103.14 44.3792Z" fill="#0F0F0F"/>
<path d="M113.407 38.6216C113.995 39.2048 114.288 40.1192 114.288 41.3672V45.8H113.009V41.4464C113.009 40.6256 112.824 39.9992 112.454 39.5672C112.085 39.1352 111.552 38.9192 110.856 38.9192C110.107 38.9192 109.519 39.1808 109.092 39.6992C108.665 40.22 108.451 40.9256 108.451 41.8208V45.8H107.172V37.8416H108.281L108.451 38.9192C109.056 38.1392 109.93 37.7504 111.072 37.7504C112.039 37.7504 112.817 38.0408 113.405 38.624L113.407 38.6216Z" fill="#0F0F0F"/>
<path d="M116.926 43.1792C116.947 43.6592 117.156 44.048 117.559 44.3504C117.958 44.6528 118.476 44.804 119.112 44.804C119.674 44.804 120.127 44.6912 120.478 44.468C120.826 44.2448 121.001 43.9496 121.001 43.5872C121.001 43.2752 120.917 43.0352 120.751 42.8696C120.586 42.704 120.37 42.5888 120.106 42.5264C119.839 42.464 119.462 42.4016 118.975 42.3392C118.289 42.2552 117.727 42.1472 117.29 42.0104C116.854 41.876 116.501 41.66 116.23 41.3624C115.958 41.0672 115.824 40.6592 115.824 40.1384C115.824 39.6704 115.956 39.2552 116.222 38.8904C116.489 38.5256 116.849 38.2424 117.307 38.0384C117.766 37.8344 118.279 37.7336 118.853 37.7336C119.789 37.7336 120.552 37.952 121.138 38.3888C121.723 38.8256 122.05 39.4496 122.112 40.2608H120.833C120.78 39.8432 120.578 39.5024 120.223 39.2312C119.87 38.96 119.426 38.8256 118.898 38.8256C118.37 38.8256 117.919 38.9384 117.588 39.1616C117.257 39.3848 117.089 39.68 117.089 40.0448C117.089 40.316 117.168 40.5224 117.324 40.6688C117.48 40.8152 117.679 40.9136 117.924 40.964C118.169 41.0168 118.541 41.0744 119.04 41.1368C119.736 41.2208 120.312 41.336 120.766 41.48C121.219 41.624 121.582 41.8592 121.858 42.1808C122.134 42.5024 122.27 42.9392 122.27 43.4912C122.27 43.9688 122.129 44.3912 121.85 44.756C121.57 45.1208 121.19 45.4016 120.713 45.5984C120.233 45.7952 119.705 45.8936 119.122 45.8936C118.08 45.8936 117.245 45.6536 116.616 45.176C115.987 44.696 115.668 44.0312 115.656 43.1792H116.935H116.926Z" fill="#0F0F0F"/>
</svg>
