<svg width="20" height="20" viewBox="0 0 20 20" fill="none" xmlns="http://www.w3.org/2000/svg">
<path d="M5 3.125C5 2.95924 5.06585 2.80027 5.18306 2.68306C5.30027 2.56585 5.45924 2.5 5.625 2.5H6.875C7.04076 2.5 7.19973 2.56585 7.31694 2.68306C7.43415 2.80027 7.5 2.95924 7.5 3.125V4.375C7.5 4.54076 7.43415 4.69973 7.31694 4.81694C7.19973 4.93415 7.04076 5 6.875 5H5.625C5.45924 5 5.30027 4.93415 5.18306 4.81694C5.06585 4.69973 5 4.54076 5 4.375V3.125ZM8.75 3.125C8.75 2.95924 8.81585 2.80027 8.93306 2.68306C9.05027 2.56585 9.20924 2.5 9.375 2.5H10.625C10.7908 2.5 10.9497 2.56585 11.0669 2.68306C11.1842 2.80027 11.25 2.95924 11.25 3.125V4.375C11.25 4.54076 11.1842 4.69973 11.0669 4.81694C10.9497 4.93415 10.7908 5 10.625 5H9.375C9.20924 5 9.05027 4.93415 8.93306 4.81694C8.81585 4.69973 8.75 4.54076 8.75 4.375V3.125ZM13.125 2.5C12.9592 2.5 12.8003 2.56585 12.6831 2.68306C12.5658 2.80027 12.5 2.95924 12.5 3.125V4.375C12.5 4.54076 12.5658 4.69973 12.6831 4.81694C12.8003 4.93415 12.9592 5 13.125 5H14.375C14.5408 5 14.6997 4.93415 14.8169 4.81694C14.9342 4.69973 15 4.54076 15 4.375V3.125C15 2.95924 14.9342 2.80027 14.8169 2.68306C14.6997 2.56585 14.5408 2.5 14.375 2.5H13.125ZM5 6.875C5 6.70924 5.06585 6.55027 5.18306 6.43306C5.30027 6.31585 5.45924 6.25 5.625 6.25H6.875C7.04076 6.25 7.19973 6.31585 7.31694 6.43306C7.43415 6.55027 7.5 6.70924 7.5 6.875V8.125C7.5 8.29076 7.43415 8.44973 7.31694 8.56694C7.19973 8.68415 7.04076 8.75 6.875 8.75H5.625C5.45924 8.75 5.30027 8.68415 5.18306 8.56694C5.06585 8.44973 5 8.29076 5 8.125V6.875ZM9.375 6.25C9.20924 6.25 9.05027 6.31585 8.93306 6.43306C8.81585 6.55027 8.75 6.70924 8.75 6.875V8.125C8.75 8.29076 8.81585 8.44973 8.93306 8.56694C9.05027 8.68415 9.20924 8.75 9.375 8.75H10.625C10.7908 8.75 10.9497 8.68415 11.0669 8.56694C11.1842 8.44973 11.25 8.29076 11.25 8.125V6.875C11.25 6.70924 11.1842 6.55027 11.0669 6.43306C10.9497 6.31585 10.7908 6.25 10.625 6.25H9.375ZM12.5 6.875C12.5 6.70924 12.5658 6.55027 12.6831 6.43306C12.8003 6.31585 12.9592 6.25 13.125 6.25H14.375C14.5408 6.25 14.6997 6.31585 14.8169 6.43306C14.9342 6.55027 15 6.70924 15 6.875V8.125C15 8.29076 14.9342 8.44973 14.8169 8.56694C14.6997 8.68415 14.5408 8.75 14.375 8.75H13.125C12.9592 8.75 12.8003 8.68415 12.6831 8.56694C12.5658 8.44973 12.5 8.29076 12.5 8.125V6.875ZM5.625 10C5.45924 10 5.30027 10.0658 5.18306 10.1831C5.06585 10.3003 5 10.4592 5 10.625V11.875C5 12.0408 5.06585 12.1997 5.18306 12.3169C5.30027 12.4342 5.45924 12.5 5.625 12.5H6.875C7.04076 12.5 7.19973 12.4342 7.31694 12.3169C7.43415 12.1997 7.5 12.0408 7.5 11.875V10.625C7.5 10.4592 7.43415 10.3003 7.31694 10.1831C7.19973 10.0658 7.04076 10 6.875 10H5.625ZM8.75 10.625C8.75 10.4592 8.81585 10.3003 8.93306 10.1831C9.05027 10.0658 9.20924 10 9.375 10H10.625C10.7908 10 10.9497 10.0658 11.0669 10.1831C11.1842 10.3003 11.25 10.4592 11.25 10.625V11.875C11.25 12.0408 11.1842 12.1997 11.0669 12.3169C10.9497 12.4342 10.7908 12.5 10.625 12.5H9.375C9.20924 12.5 9.05027 12.4342 8.93306 12.3169C8.81585 12.1997 8.75 12.0408 8.75 11.875V10.625ZM13.125 10C12.9592 10 12.8003 10.0658 12.6831 10.1831C12.5658 10.3003 12.5 10.4592 12.5 10.625V11.875C12.5 12.0408 12.5658 12.1997 12.6831 12.3169C12.8003 12.4342 12.9592 12.5 13.125 12.5H14.375C14.5408 12.5 14.6997 12.4342 14.8169 12.3169C14.9342 12.1997 15 12.0408 15 11.875V10.625C15 10.4592 14.9342 10.3003 14.8169 10.1831C14.6997 10.0658 14.5408 10 14.375 10H13.125Z" fill="#0F0F0F"/>
<path d="M2.5 1.25C2.5 0.918479 2.6317 0.600537 2.86612 0.366117C3.10054 0.131696 3.41848 0 3.75 0L16.25 0C16.5815 0 16.8995 0.131696 17.1339 0.366117C17.3683 0.600537 17.5 0.918479 17.5 1.25V18.75C17.5 19.0815 17.3683 19.3995 17.1339 19.6339C16.8995 19.8683 16.5815 20 16.25 20H3.75C3.41848 20 3.10054 19.8683 2.86612 19.6339C2.6317 19.3995 2.5 19.0815 2.5 18.75V1.25ZM16.25 1.25H3.75V18.75H7.5V15.625C7.5 15.4592 7.56585 15.3003 7.68306 15.1831C7.80027 15.0658 7.95924 15 8.125 15H11.875C12.0408 15 12.1997 15.0658 12.3169 15.1831C12.4342 15.3003 12.5 15.4592 12.5 15.625V18.75H16.25V1.25Z" fill="#0F0F0F"/>
</svg>
