<svg width="20" height="20" viewBox="0 0 20 20" fill="none" xmlns="http://www.w3.org/2000/svg">
<g clip-path="url(#clip0_279_316)">
<path fill-rule="evenodd" clip-rule="evenodd" d="M1.25002 14.375C1.25002 14.5408 1.31587 14.6997 1.43308 14.8169C1.55029 14.9341 1.70926 15 1.87502 15H16.6163L12.6825 18.9325C12.5652 19.0499 12.4992 19.209 12.4992 19.375C12.4992 19.541 12.5652 19.7001 12.6825 19.8175C12.7999 19.9349 12.959 20.0008 13.125 20.0008C13.291 20.0008 13.4502 19.9349 13.5675 19.8175L18.5675 14.8175C18.6257 14.7594 18.6719 14.6905 18.7034 14.6145C18.7349 14.5386 18.7511 14.4572 18.7511 14.375C18.7511 14.2928 18.7349 14.2114 18.7034 14.1355C18.6719 14.0595 18.6257 13.9906 18.5675 13.9325L13.5675 8.9325C13.4502 8.81514 13.291 8.74921 13.125 8.74921C12.959 8.74921 12.7999 8.81514 12.6825 8.9325C12.5652 9.04985 12.4992 9.20903 12.4992 9.375C12.4992 9.54097 12.5652 9.70014 12.6825 9.8175L16.6163 13.75H1.87502C1.70926 13.75 1.55029 13.8158 1.43308 13.9331C1.31587 14.0503 1.25002 14.2092 1.25002 14.375ZM18.75 5.625C18.75 5.79076 18.6842 5.94973 18.567 6.06694C18.4498 6.18415 18.2908 6.25 18.125 6.25H3.38377L7.31752 10.1825C7.37563 10.2406 7.42172 10.3096 7.45317 10.3855C7.48462 10.4614 7.50081 10.5428 7.50081 10.625C7.50081 10.7072 7.48462 10.7886 7.45317 10.8645C7.42172 10.9404 7.37563 11.0094 7.31752 11.0675C7.25941 11.1256 7.19042 11.1717 7.1145 11.2032C7.03857 11.2346 6.9572 11.2508 6.87502 11.2508C6.79284 11.2508 6.71146 11.2346 6.63554 11.2032C6.55962 11.1717 6.49063 11.1256 6.43252 11.0675L1.43252 6.0675C1.37431 6.00944 1.32814 5.94047 1.29663 5.86454C1.26512 5.78861 1.2489 5.70721 1.2489 5.625C1.2489 5.54279 1.26512 5.46139 1.29663 5.38545C1.32814 5.30952 1.37431 5.24055 1.43252 5.1825L6.43252 0.182496C6.54988 0.0651377 6.70905 -0.000793457 6.87502 -0.000793457C7.04099 -0.000793457 7.20016 0.0651377 7.31752 0.182496C7.43488 0.299854 7.50081 0.459026 7.50081 0.624996C7.50081 0.790966 7.43488 0.950138 7.31752 1.0675L3.38377 5H18.125C18.2908 5 18.4498 5.06584 18.567 5.18305C18.6842 5.30026 18.75 5.45924 18.75 5.625Z" fill="#0F0F0F"/>
</g>
<defs>
<clipPath id="clip0_279_316">
<rect width="20" height="20" fill="white"/>
</clipPath>
</defs>
</svg>
